<svg id="Layer_2" data-name="Layer 2" xmlns="http://www.w3.org/2000/svg" viewBox="0 0 500 500"><defs><style>.cls-1{fill:#da6a27;}.cls-2{fill:#d2c6b4;}.cls-3{fill:#e2d5c0;}.cls-4{fill:#eae7df;}.cls-5{fill:#f4f2e4;}.cls-6{fill:#685135;stroke:#5c5455;stroke-miterlimit:10;}.cls-7{fill:#5e3a22;}.cls-14,.cls-8{fill:#54321b;}.cls-9{fill:#e5d2c6;}.cls-10{fill:none;}.cls-11{fill:#c9c1c3;}.cls-12{fill:#dcc5b6;}.cls-13{fill:#e8e6dd;}.cls-14{font-size:52px;font-family:Karla;font-weight:700;}</style></defs><title>Coffee</title><rect class="cls-1" width="500" height="500"/><polygon class="cls-2" points="424.02 238.24 412.37 361.84 381.45 361.84 381.45 238.24 424.02 238.24"/><polygon class="cls-3" points="381.45 238.24 381.45 361.84 352.99 361.84 340.27 238.24 381.45 238.24"/><rect class="cls-4" x="399.11" y="221.89" width="33.23" height="16.34"/><rect class="cls-5" x="330.55" y="221.89" width="68.56" height="16.34"/><polygon class="cls-4" points="427.45 221.89 399.11 221.89 399.11 205.36 424.02 205.36 427.45 221.89"/><polygon class="cls-5" points="399.11 205.36 399.11 221.89 336.27 221.89 340.27 205.36 399.11 205.36"/><polygon class="cls-6" points="342.95 264.31 421.57 264.31 416.57 317.27 348.4 317.27 342.95 264.31"/><polygon class="cls-7" points="123.92 273.08 123.92 362.42 93.75 362.42 82.59 273.08 123.92 273.08"/><polygon class="cls-8" points="164.96 273.08 153.31 362.42 123.92 362.42 123.92 273.08 164.96 273.08"/><polygon class="cls-9" points="123.92 250.9 123.92 273.08 82.59 273.08 79.82 250.9 123.92 250.9"/><polygon class="cls-5" points="172.13 218.1 167.85 250.9 79.82 250.9 75.73 218.1 172.13 218.1"/><line class="cls-10" x1="123.92" y1="250.9" x2="123.92" y2="218.1"/><polygon class="cls-11" points="153.95 177.39 140.45 252.32 146.19 252.52 159.25 178.06 153.95 177.39"/><polygon class="cls-12" points="167.85 250.9 164.96 273.08 123.92 273.08 123.92 250.9 167.85 250.9"/><path class="cls-13" d="M279.89,359.65c-7.66,4.49-17.7,4-30.86,4V303.1h55.08S307.4,343.5,279.89,359.65Z" transform="translate(0)"/><path class="cls-5" d="M249,303.1v60.58c-13.16,0-23.2,1.13-30.86-3.37C190.66,344.17,194,303.1,194,303.1H249Z" transform="translate(0)"/><path class="cls-5" d="M279.89,356.31" transform="translate(0)"/><path class="cls-5" d="M304.13,311.22s19.21-8.12,19.21,14.45-26.14,14.73-26.14,14.73l2.86-6.94s17.5,11.28,17.5-7.78-14-7.64-14-7.64Z" transform="translate(0)"/><text class="cls-14" transform="translate(175.77 147.27)">coffee</text></svg>