<svg id="Layer_2" data-name="Layer 2" xmlns="http://www.w3.org/2000/svg" viewBox="0 0 500 500"><defs><style>.cls-1{fill:#bd7bb5;}.cls-2{fill:#b5b5ba;}.cls-3{fill:#777e84;}.cls-14,.cls-4{fill:#525354;}.cls-5{fill:#399656;}.cls-6{fill:#97979e;}.cls-7{fill:#5f6161;stroke:#181919;stroke-width:0.1px;}.cls-11,.cls-22,.cls-7{stroke-miterlimit:10;}.cls-8{fill:#363738;}.cls-9{fill:#3c3d3d;}.cls-10{fill:#8a939b;}.cls-11,.cls-22{fill:none;}.cls-11{stroke:#71787c;}.cls-12{fill:#757b7f;}.cls-13{fill:#6b7378;}.cls-14{font-size:52px;font-family:Karla;font-weight:700;}.cls-15{fill:#4d555b;}.cls-16{fill:#42602d;}.cls-17{fill:#976035;}.cls-18{fill:#5d7f5c;}.cls-19{fill:#588393;}.cls-20{fill:#c1c153;}.cls-21{fill:#a14439;}.cls-22{stroke:#616668;stroke-width:0.2px;}.cls-23{fill:#356c9c;}.cls-24{fill:#97aa3a;}.cls-25{fill:#4f5145;}.cls-26{fill:#6b6e5e;}</style></defs><title>Gaming</title><rect class="cls-1" width="500" height="500"/><rect class="cls-1" x="45.09" y="299.87" width="6.19" height="6.19"/><rect class="cls-2" x="248.05" y="241.05" width="104.75" height="71.18" rx="2" ry="2"/><path class="cls-3" d="M352.62,245V306.2h-8.79s-4-23.87-17.33-30.58-16.21-1.7-21.58-13.37c-4.24-9.2-3.57-15.12-3.1-17.21h50.8Z" transform="translate(-1.78 -0.66)"/><path class="cls-4" d="M343.83,306.2h-92V245h50c-0.47,2.09-1.14,8,3.1,17.21,5.37,11.67,8.25,6.67,21.58,13.37S343.83,306.2,343.83,306.2Z" transform="translate(-1.78 -0.66)"/><circle class="cls-4" cx="302.2" cy="243.31" r="0.89" transform="translate(11.6 501.71) rotate(-80.73)"/><circle class="cls-5" cx="303.13" cy="242.72" r="0.33"/><path class="cls-4" d="M302.2,312.75" transform="translate(-1.78 -0.66)"/><path class="cls-6" d="M362.62,311H241.78a1,1,0,0,0-1,1s1.51,2.87,2,2.87h118.8c0.53,0,1.91-2.87,1.91-2.87A1,1,0,0,0,362.62,311Z" transform="translate(-1.78 -0.66)"/><path class="cls-4" d="M307.49,312.75h-9.87c-2.72,0-2.41-1.75-2.41-1.75h14A1.57,1.57,0,0,1,307.49,312.75Z" transform="translate(-1.78 -0.66)"/><rect class="cls-7" x="41.8" y="215.15" width="165.33" height="98.05"/><rect class="cls-8" x="43.84" y="217.82" width="161.24" height="90.37"/><rect class="cls-8" x="192.11" y="313.2" width="8.48" height="0.94"/><rect class="cls-8" x="182.36" y="313.2" width="3.48" height="0.94"/><rect class="cls-9" x="98.8" y="335.78" width="51.33" height="4.33"/><rect class="cls-9" x="120.13" y="313.2" width="8.67" height="22.58"/><rect class="cls-8" x="176.65" y="313.2" width="3.48" height="0.94"/><rect class="cls-10" x="398.54" y="214.13" width="56.41" height="127"/><polyline class="cls-11" points="403.08 214.13 398.42 214.13 398.42 216.83"/><polyline class="cls-11" points="450.29 214.13 454.95 214.13 454.95 216.83"/><polyline class="cls-11" points="403.08 341.13 398.42 341.13 398.42 338.44"/><polyline class="cls-11" points="450.29 341.13 454.95 341.13 454.95 338.44"/><rect class="cls-12" x="401.8" y="220.33" width="11.65" height="1.64"/><line class="cls-11" x1="398.42" y1="247.13" x2="454.95" y2="246.63"/><rect class="cls-13" x="401.8" y="228.38" width="50.82" height="4.25"/><rect class="cls-13" x="405.25" y="235.38" width="5.51" height="2.25"/><rect class="cls-13" x="405.25" y="235.38" width="5.51" height="2.25"/><rect class="cls-13" x="411.9" y="235.38" width="5.51" height="2.25"/><rect class="cls-13" x="418.63" y="235.38" width="5.51" height="2.25"/><circle class="cls-13" cx="448.09" cy="236.51" r="0.92"/><circle class="cls-13" cx="444.62" cy="236.59" r="0.92"/><text class="cls-14" transform="translate(149.82 147.05)">gaming</text><rect class="cls-4" x="179.82" y="287.09" width="24.95" height="21.11"/><rect class="cls-4" x="94.82" y="302.97" width="47.5" height="5.15"/><rect class="cls-4" x="176.71" y="217.82" width="28.06" height="4.18"/><path class="cls-15" d="M93.5,225.17c10.43,11.08,12.28,6.5,12.28,6.5s7.89-3.33,11.39,3.33,4,4.83,7.83,4.83,2.83,1.67,4,4.5,1.33,4.17,0,5.17-3.5,1.5-6.5-1-4.67-4.17-4.67-4.17-0.5-2.92-4.33-2.62-11-5.71-11-5.71-5-1.17-8.17-2.17a13.88,13.88,0,0,1-5.17-3l-4-2.83a45.84,45.84,0,0,1-4.33-2.83,52.38,52.38,0,0,1-7.74-6.68H95.5S90.83,222.33,93.5,225.17Z" transform="translate(-1.78 -0.66)"/><path class="cls-15" d="M206.55,277.3s-24.35-4.63-25-7.47,8.23-.67-5.1-4-13.17-4.33-13.83-2.16-6.83-2.84.83,5,7.67,8.63,7.67,8.63-0.94,1.7,8.69,3.53,9.64-3.17,16.31,0,8.83,4.5,8.83,4.5h1.55" transform="translate(-1.78 -0.66)"/><path class="cls-15" d="M93.76,283c3.87-2.13-1.91-10.12-10.48-14.29s-10.12-10.53-14.87-10.53-6-1.75-11.05-4.76-6.16-2.72-6.16-2.72l9,12.29-3.75,2.75s8.34,9.28,11.6,7.69,5.29-5.49,7.36-1.65S76,275.36,81.6,278s5.86,2.13,7.27,2.44S92.3,283.77,93.76,283Z" transform="translate(-1.78 -0.66)"/><path class="cls-15" d="M144,293.33c-2.83,3-7,4.12-6.17,7.2s-0.11,3.15-.11,3.15l8-.08v5.19l14.74,0.06s-3.17.64-5.33-3.86-3.77-5.5-6.05-8-0.11-7.33-2.61-5.5Z" transform="translate(-1.78 -0.66)"/><path class="cls-16" d="M160.83,268.83c-6.17,1-7.67,2.33-10,7s5.67,3.5,0,4.17-5.5-4.67-5.67.67,3.5,3.5,2.17,5.17,0.49,1.67-2.17,1.33-6-2-3.66.17,3.5,1.49,2.33,2.16-2.33,1.5-2.33,1.5-4.17-.17-1.5,1.33,4.17,0,4.33,1.35a10.92,10.92,0,0,0,1,2.94l2.78-1,1.86-3,0.7-3.83,2,1.5,2.67-4.5s0.33-2.67,2-3.83,3.83-.83,2.67-3.17,0.83-2,.83-2l3.1-3.17,1.73-2.67s5.76,1.67,1.63,0A44.18,44.18,0,0,0,160.83,268.83Z" transform="translate(-1.78 -0.66)"/><path class="cls-16" d="M115.34,249.78c-6.17,1-7.67,2.33-10,7s5.67,3.5,0,4.17-5.5-4.67-5.67.67,3.5,3.5,2.17,5.17,0.49,1.67-2.17,1.33-6-2-3.66.17,3.5,1.49,2.33,2.16-2.33,1.5-2.33,1.5-4.17-.17-1.5,1.33,4.17,0,4.33,1.35a10.92,10.92,0,0,0,1,2.94l2.78-1,1.86-3,0.7-3.83,2,1.5,2.67-4.5s0.33-2.67,2-3.83,3.83-.83,2.67-3.17,0.83-2,.83-2l3.1-3.17,1.73-2.67s5.76,1.67,1.63,0A44.18,44.18,0,0,0,115.34,249.78Z" transform="translate(-1.78 -0.66)"/><path class="cls-15" d="M149.11,218.48s5.89,4.35-1.78,6.18-3.17,5.33-7.33,5.17-0.33,1.33-6.17-1.17-3.3-2.33-7.9-2.83-6.1-2.17-6.43-3.17,2.17-1-1.83-2.09-4.17-2.09-4.17-2.09h35.61Z" transform="translate(-1.78 -0.66)"/><path class="cls-15" d="M206.55,249s-6.22-6.17-21.89-4.83S173,246.5,174.33,240.5s-7.67-3.17-4.33-7.83,5.67-5.17,5.67-5.17a24.88,24.88,0,0,0,5.93-.67c1.9-.67,3.23-4.17,3.23-4.17h21.72V249Z" transform="translate(-1.78 -0.66)"/><ellipse class="cls-17" cx="90.12" cy="278.12" rx="3.08" ry="1.48"/><ellipse class="cls-17" cx="127.07" cy="244.38" rx="3.08" ry="1.48"/><ellipse class="cls-17" cx="139.24" cy="295.96" rx="3.08" ry="1.48"/><ellipse class="cls-17" cx="160.07" cy="263.01" rx="3.08" ry="1.48"/><rect class="cls-4" x="108.36" y="301.37" width="36.86" height="6.75"/><circle class="cls-18" cx="106.49" cy="304.8" r="3.43"/><rect class="cls-18" x="111.03" y="305.54" width="22.15" height="1.01"/><rect class="cls-19" x="111.03" y="306.86" width="22.15" height="1.01"/><rect class="cls-20" x="130.66" y="301.95" width="2.52" height="2.52"/><rect class="cls-21" x="127.67" y="301.95" width="2.52" height="2.52"/><rect class="cls-21" x="123.75" y="301.95" width="3" height="3"/><rect class="cls-21" x="120.32" y="301.95" width="3" height="3"/><rect class="cls-21" x="116.98" y="301.95" width="3" height="3"/><rect class="cls-21" x="113.42" y="301.95" width="3" height="3"/><rect class="cls-21" x="110.93" y="302.02" width="1.89" height="1.89"/><rect class="cls-16" x="134.37" y="301.95" width="2.03" height="2.03"/><rect class="cls-16" x="139.68" y="304.53" width="2.03" height="2.03"/><rect class="cls-16" x="136.97" y="304.53" width="2.03" height="2.03"/><rect class="cls-16" x="134.37" y="304.53" width="2.03" height="2.03"/><rect class="cls-16" x="139.68" y="301.95" width="2.03" height="2.03"/><rect class="cls-16" x="136.97" y="301.96" width="2.03" height="2.03"/><rect class="cls-22" x="134.37" y="306.86" width="9.78" height="1.01"/><circle class="cls-23" cx="143.21" cy="305.54" r="0.71"/><rect class="cls-24" x="142.5" y="302.34" width="1.48" height="1.48"/><rect class="cls-25" x="180.38" y="287.67" width="23.83" height="19.83"/><path class="cls-26" d="M185.88,289.88a12.65,12.65,0,0,0,2.55,2.31c0.57,0.32,1.41-.85,2.26.09s-0.39,1.35-.13,1.83a17.29,17.29,0,0,0,2.64,3.44c0.88,0.71,4.75-5.29,4.75-5.29s1.33-2.12-1.33-2.21S185.88,289.88,185.88,289.88Z" transform="translate(-1.78 -0.66)"/><path class="cls-26" d="M197,299.71l6.08-6a3.86,3.86,0,0,1,1.5.6c0.13,0.29,0,10,0,10S197,300.21,197,299.71Z" transform="translate(-1.78 -0.66)"/><path class="cls-26" d="M194.29,302.21l-3,2.88,0.63,1.33s8.21,0.46,8.25.33a0.75,0.75,0,0,0-.14-1.15s-1.57.52-2.2,0,0-1.62-.17-1.81a8.33,8.33,0,0,0-3-2A1.87,1.87,0,0,0,194.29,302.21Z" transform="translate(-1.78 -0.66)"/><path class="cls-26" d="M191.25,299.29l-6.58-5.55s-0.33,7.84,0,8.05,2.38,1.71,2.5,1.38S191.25,299.29,191.25,299.29Z" transform="translate(-1.78 -0.66)"/><path class="cls-26" d="M183.92,307.08a21.39,21.39,0,0,1,.23-3,10.15,10.15,0,0,1,1.52-.25l2,0.54,0.71,2.21a1.69,1.69,0,0,1,.21.88h-4.62v-0.33Z" transform="translate(-1.78 -0.66)"/><path class="cls-26" d="M205.33,289h-5.87l-0.21.92s0.54,1.83.88,1.79a11.07,11.07,0,0,1,2.17.88h3V289Z" transform="translate(-1.78 -0.66)"/></svg>