<svg id="Layer_1" data-name="Layer 1" xmlns="http://www.w3.org/2000/svg" viewBox="0 0 413.15 151.96"><defs><style>.cls-1{fill:#fff;}.cls-1,.cls-3,.cls-4{stroke:#231f20;stroke-miterlimit:10;}.cls-2{font-size:8px;}.cls-2,.cls-5,.cls-6,.cls-7,.cls-8{fill:#231f20;}.cls-2,.cls-6,.cls-7,.cls-8{font-family:Karla;font-weight:700;}.cls-3,.cls-4{fill:none;}.cls-4{stroke-width:2px;}.cls-6{font-size:12px;}.cls-7{font-size:11px;}.cls-8{font-size:10px;}</style></defs><title>LDA_Diagrams</title><rect class="cls-1" x="1.48" y="72.04" width="43" height="57.34"/><rect class="cls-1" x="4.93" y="75.41" width="43" height="57.34"/><rect class="cls-1" x="8.71" y="79.47" width="43" height="57.34"/><rect class="cls-1" x="12.15" y="82.85" width="43" height="57.34"/><text class="cls-2" transform="translate(0 66.4)">Y<tspan x="4.18" y="0">elp Reviews</tspan></text><rect class="cls-3" x="83.05" y="23" width="57.34" height="19.02"/><rect class="cls-1" x="85.67" y="25.63" width="57.34" height="19.02"/><rect class="cls-1" x="88.25" y="28.51" width="57.34" height="19.02"/><text class="cls-2" transform="translate(83.54 18.65)">Stop <tspan x="19.7" y="0">W</tspan><tspan x="27.1" y="0">ords</tspan></text><line class="cls-4" x1="155.4" y1="47.49" x2="187.11" y2="60.92"/><polyline class="cls-4" points="22.98 91.11 25.02 92.11 27.06 91.11 29.1 92.11 31.14 91.11 33.18 92.11 35.22 91.11 37.26 92.11 39.3 91.11 41.34 92.11 43.38 91.11 45.43 92.11 47.47 91.11 49.52 92.11"/><polyline class="cls-4" points="17.84 96.23 20.27 97.23 22.7 96.23 25.13 97.23 27.57 96.23 30 97.23 32.43 96.23 34.86 97.23 37.29 96.23 39.73 97.23 42.16 96.23 44.59 97.23 47.03 96.23 49.47 97.23"/><polyline class="cls-4" points="17.79 101.52 20.22 102.52 22.65 101.52 25.08 102.52 27.52 101.52 29.95 102.52 32.38 101.52 34.81 102.52 37.24 101.52 39.67 102.52 42.11 101.52 44.55 102.52 46.98 101.52 49.42 102.52"/><polyline class="cls-4" points="17.74 106.64 20.18 107.64 22.63 106.64 25.07 107.64 27.51 106.64 29.96 107.64 32.4 106.64 34.84 107.64 37.28 106.64 39.73 107.64 42.17 106.64 44.62 107.64 47.07 106.64 49.52 107.64"/><polyline class="cls-4" points="22.84 114.05 24.88 115.05 26.92 114.05 28.96 115.05 31 114.05 33.04 115.05 35.08 114.05 37.12 115.05 39.16 114.05 41.2 115.05 43.24 114.05 45.28 115.05 47.33 114.05 49.38 115.05"/><polyline class="cls-4" points="17.74 119.35 20.17 120.35 22.6 119.35 25.04 120.35 27.47 119.35 29.9 120.35 32.33 119.35 34.76 120.35 37.19 119.35 39.63 120.35 42.06 119.35 44.5 120.35 46.94 119.35 49.38 120.35"/><polyline class="cls-4" points="17.84 125.23 20.27 126.23 22.7 125.23 25.13 126.23 27.57 125.23 30 126.23 32.43 125.23 34.86 126.23 37.29 125.23 39.73 126.23 42.16 125.23 44.59 126.23 47.03 125.23 49.47 126.23"/><line class="cls-4" x1="69.25" y1="112.34" x2="170.47" y2="100.71"/><polygon class="cls-5" points="185.04 64.47 188.29 57.11 193.51 63.07 185.04 64.47"/><polygon class="cls-5" points="170.24 105.13 168.94 97.19 176.57 99.33 170.24 105.13"/><text class="cls-6" transform="translate(218.39 92.27)">LDA</text><text x="-114.04" y="-32.31"/><ellipse class="cls-3" cx="228.67" cy="89.34" rx="35.16" ry="21.26"/><line class="cls-4" x1="280.34" y1="67.15" x2="316.83" y2="49"/><polygon class="cls-5" points="317.06 52.86 313.65 45.57 321.57 45.55 317.06 52.86"/><line class="cls-4" x1="281.15" y1="107.01" x2="317.22" y2="124.96"/><polygon class="cls-5" points="318.88 121.31 315.46 128.59 323.38 128.61 318.88 121.31"/><line class="cls-4" x1="285.59" y1="86.53" x2="325.08" y2="84.97"/><polygon class="cls-5" points="324.84 81.19 325.35 89.22 332.3 85.43 324.84 81.19"/><circle class="cls-4" cx="357.46" cy="32.41" r="10.39"/><text class="cls-7" transform="translate(355.24 36.14)">1</text><circle class="cls-4" cx="358.46" cy="83.88" r="10.39"/><text class="cls-7" transform="translate(355.24 87.61)">2</text><circle class="cls-4" cx="358.46" cy="134.92" r="10.39"/><text class="cls-7" transform="translate(355.24 138.64)">3</text><text class="cls-8" transform="translate(342.34 8.25)">T<tspan x="4.41" y="0">opics</tspan></text></svg>