<svg id="Layer_2" data-name="Layer 2" xmlns="http://www.w3.org/2000/svg" xmlns:xlink="http://www.w3.org/1999/xlink" viewBox="0 0 500 500"><defs><style>.cls-1{fill:#d1cd99;}.cls-2{fill:#a2cf67;}.cls-3{fill:#1e1e1c;}.cls-4{fill:#272825;}.cls-5{fill:#989b90;}.cls-45,.cls-6{fill:#2a2b28;}.cls-7{fill:#2c2d2a;}.cls-8{fill:#343532;}.cls-10,.cls-11,.cls-25,.cls-26,.cls-33,.cls-35,.cls-36,.cls-39,.cls-9{fill:none;}.cls-10,.cls-11,.cls-9{stroke:#c7cebe;}.cls-10,.cls-11,.cls-14,.cls-17,.cls-22,.cls-25,.cls-26,.cls-27,.cls-28,.cls-29,.cls-30,.cls-31,.cls-33,.cls-35,.cls-36,.cls-39,.cls-9{stroke-miterlimit:10;}.cls-10{stroke-width:0.75px;}.cls-11,.cls-17,.cls-30,.cls-31,.cls-36{stroke-width:0.5px;}.cls-12{fill:#bc2f3d;}.cls-13,.cls-14,.cls-22{fill:#212121;}.cls-14{stroke:#262626;}.cls-15{fill:#2b2b28;}.cls-16,.cls-17{fill:#101010;}.cls-17,.cls-36{stroke:#353131;}.cls-18{fill:#111;}.cls-19{fill:#161616;}.cls-20{fill:#1b1b1b;}.cls-21{fill:#2d2d2d;}.cls-22{stroke:#353030;}.cls-23,.cls-27,.cls-28,.cls-29,.cls-31{fill:#282525;}.cls-24{fill:#262222;}.cls-25{stroke:#181818;}.cls-26{stroke:#1b1a1a;}.cls-27{stroke:#282828;stroke-width:3px;}.cls-28{stroke:#bc303e;stroke-width:0.3px;}.cls-29,.cls-35{stroke:#444;}.cls-30{fill:#443f3f;}.cls-30,.cls-31{stroke:#a1a1a1;}.cls-32{fill:#171616;}.cls-33{stroke:#2d2d2d;}.cls-34{fill:#717171;}.cls-37{fill:#e9e9e9;}.cls-38{fill:#a8a797;}.cls-39{stroke:#939380;}.cls-40{fill:#7c7c6e;}.cls-41{fill:#939380;}.cls-42{fill:#bec6ac;}.cls-43{clip-path:url(#clip-path);}.cls-44{fill:#9c9c9c;}.cls-45{font-size:52px;font-family:Karla;font-weight:700;}</style><clipPath id="clip-path" transform="translate(0 -0.62)"><circle class="cls-1" cx="452.52" cy="236.76" r="4.78"/></clipPath></defs><title>Photography</title><rect class="cls-2" width="500" height="500"/><polygon class="cls-3" points="312.68 270.45 310.17 273.05 310.17 270.45 312.68 270.45"/><rect class="cls-4" x="217.37" y="238.22" width="99.95" height="11.71"/><rect class="cls-4" x="217.37" y="254.39" width="99.95" height="99.28"/><rect class="cls-5" x="215.77" y="343.68" width="103.37" height="4.55"/><rect class="cls-6" x="215.05" y="283.1" width="104.55" height="61.3"/><path class="cls-7" d="M213.6,243.78v5.58H321v-5.58H213.6Zm0,9.25v74.48H321V253H213.6Z" transform="translate(0 -0.62)"/><rect class="cls-8" x="213.55" y="271.03" width="107.49" height="51.97"/><rect class="cls-4" x="216.24" y="272.28" width="2.82" height="49.17"/><rect class="cls-4" x="220.97" y="272.28" width="2.82" height="49.17"/><rect class="cls-4" x="225.7" y="272.28" width="2.82" height="49.17"/><rect class="cls-4" x="230.43" y="272.28" width="2.82" height="49.17"/><rect class="cls-4" x="235.16" y="272.28" width="2.82" height="49.17"/><rect class="cls-4" x="239.89" y="272.28" width="2.82" height="49.17"/><rect class="cls-4" x="244.63" y="272.28" width="2.82" height="49.17"/><rect class="cls-4" x="249.36" y="272.28" width="2.82" height="49.17"/><rect class="cls-4" x="254.09" y="272.28" width="2.82" height="49.17"/><rect class="cls-4" x="258.82" y="272.28" width="2.82" height="49.17"/><rect class="cls-4" x="263.55" y="272.28" width="2.82" height="49.17"/><rect class="cls-4" x="268.28" y="272.28" width="2.82" height="49.17"/><rect class="cls-4" x="273.01" y="272.28" width="2.82" height="49.17"/><rect class="cls-4" x="277.74" y="272.28" width="2.82" height="49.17"/><rect class="cls-4" x="282.48" y="272.28" width="2.82" height="49.17"/><rect class="cls-4" x="287.21" y="272.28" width="2.82" height="49.17"/><rect class="cls-4" x="291.94" y="272.28" width="2.82" height="49.17"/><rect class="cls-4" x="296.67" y="272.28" width="2.82" height="49.17"/><rect class="cls-4" x="301.4" y="272.28" width="2.82" height="49.17"/><rect class="cls-4" x="306.13" y="272.28" width="2.82" height="49.17"/><rect class="cls-4" x="310.86" y="272.28" width="2.82" height="49.17"/><rect class="cls-4" x="315.6" y="272.28" width="2.82" height="49.17"/><rect class="cls-3" x="217.37" y="249.93" width="99.95" height="4.46"/><rect class="cls-3" x="213.6" y="249.93" width="3.78" height="4.46"/><rect class="cls-4" x="206.45" y="219.84" width="120.98" height="4.48"/><rect class="cls-3" x="317.33" y="249.93" width="3.72" height="4.46"/><polygon class="cls-3" points="213.6 249.93 213.6 254.39 213.56 254.39 212.07 249.93 213.6 249.93"/><polygon class="cls-3" points="322.59 249.93 321.05 254.39 321.05 249.93 322.59 249.93"/><polygon class="cls-6" points="326.63 226.08 326.63 242.24 322.59 249.93 212.07 249.93 208.16 242.24 208.16 226.08 326.63 226.08"/><rect class="cls-3" x="208.16" y="223.48" width="118.47" height="2.6"/><polygon class="cls-3" points="208.16 223.47 208.16 226.08 204.66 223.47 208.16 223.47"/><line class="cls-9" x1="323.7" y1="247.81" x2="210.99" y2="247.81"/><polyline class="cls-9" points="275.66 325 279.67 325 279.67 326.89"/><path class="cls-9" d="M252.18,325.62" transform="translate(0 -0.62)"/><line class="cls-9" x1="300.42" y1="324.04" x2="300.42" y2="326.89"/><line class="cls-10" x1="290.03" y1="324.37" x2="290.03" y2="326.89"/><line class="cls-10" x1="310.86" y1="324.37" x2="310.86" y2="326.89"/><line class="cls-11" x1="295.22" y1="325.08" x2="295.22" y2="326.89"/><line class="cls-11" x1="316.05" y1="325.08" x2="316.05" y2="326.89"/><line class="cls-11" x1="284.8" y1="325.08" x2="284.8" y2="326.89"/><line class="cls-11" x1="305.63" y1="325.08" x2="305.63" y2="326.89"/><rect class="cls-12" x="213.6" y="337.71" width="1.83" height="3.82"/><rect class="cls-13" x="52.68" y="252.16" width="10.51" height="4.14" rx="1" ry="1"/><path class="cls-14" d="M28.61,339.47H26v-3.61C26,338.76,27.65,339.36,28.61,339.47Z" transform="translate(0 -0.62)"/><path class="cls-15" d="M179,258.67v80.81H65.83c0.69-.13,1.73-0.79,1.73-3.61V268.28L26,268.54v-9.87H179Z" transform="translate(0 -0.62)"/><rect class="cls-16" x="29.3" y="256.02" width="19.59" height="2.02"/><rect class="cls-16" x="50.76" y="253.42" width="14.46" height="4.62"/><rect class="cls-13" x="68.95" y="253.71" width="19.28" height="4.62"/><rect class="cls-17" x="67.55" y="251.69" width="21.92" height="5.19"/><polygon class="cls-18" points="152.91 258.04 91.34 258.04 97.19 248.82 147.97 249.1 147.98 249.1 152.91 258.04"/><polygon class="cls-19" points="147.97 249.1 97.19 248.82 105.8 235.25 140.32 235.25 147.97 249.1"/><polygon class="cls-20" points="108.6 235.24 112.33 230.91 133.32 230.91 136.59 235.24 108.6 235.24"/><path class="cls-21" d="M68.37,266.1a18.81,18.81,0,0,1-.83,1.91c-0.95,1.94-2.7,4.88-5.25,6.51l-0.11.07a7.11,7.11,0,0,1-2.12.91,6.25,6.25,0,0,1-1.59.2H36a7.17,7.17,0,0,1-4.2-1.67,24.49,24.49,0,0,1-5.28-6c-0.17-.26-0.37-0.5-1.15-1.6C25.34,266.71,68.37,266.1,68.37,266.1Z" transform="translate(0 -0.62)"/><path class="cls-22" d="M67.55,266.6" transform="translate(0 -0.62)"/><rect class="cls-23" x="26.04" y="335.24" width="152.99" height="3.61"/><path class="cls-24" d="M68.37,266.21v70.3c0,2.86-1.15,3.53-1.91,3.66h-6.6V273.63a8.29,8.29,0,0,0,2.33-.9l0.12-.07A15.88,15.88,0,0,0,68.37,266.21Z" transform="translate(0 -0.62)"/><path class="cls-19" d="M62,272.91a7.3,7.3,0,0,1-2.15.9v66.37H28c-1-.11-2.62-0.73-2.62-3.65V266.4a24.65,24.65,0,0,0,5.81,5.95A8.51,8.51,0,0,0,35.8,274H57.91a7.79,7.79,0,0,0,1.91-.24A8.24,8.24,0,0,0,62,272.91Z" transform="translate(0 -0.62)"/><path class="cls-25" d="M28.61,339.47a2.77,2.77,0,0,0,.69,0" transform="translate(0 -0.62)"/><line class="cls-26" x1="162.13" y1="276.59" x2="179.03" y2="276.59"/><line class="cls-26" x1="68.37" y1="276.52" x2="84.46" y2="276.52"/><path class="cls-25" d="M65.22,339.47a1.55,1.55,0,0,0,.61,0" transform="translate(0 -0.62)"/><circle class="cls-27" cx="122.13" cy="298.45" r="44.14"/><circle class="cls-28" cx="122.13" cy="298.45" r="40.48"/><circle class="cls-29" cx="122.13" cy="298.45" r="38.12"/><path class="cls-30" d="M136.1,282.18H108.15A21.93,21.93,0,0,1,136.1,282.18Z" transform="translate(0 -0.62)"/><path class="cls-30" d="M136.1,316a21.93,21.93,0,0,1-27.95,0H136.1Z" transform="translate(0 -0.62)"/><path class="cls-31" d="M144,299.07A21.89,21.89,0,0,1,136.1,316H108.15a21.93,21.93,0,0,1,0-33.79H136.1A21.89,21.89,0,0,1,144,299.07Z" transform="translate(0 -0.62)"/><circle class="cls-32" cx="122.13" cy="298.45" r="10.26"/><line class="cls-33" x1="59.87" y1="338.93" x2="59.87" y2="338.85"/><line class="cls-33" x1="59.87" y1="273.29" x2="59.87" y2="273.25"/><path class="cls-24" d="M38.65,264.16H54.82s0.29,5.78-1.88,5.78H41C38.32,269.95,38.65,264.16,38.65,264.16Z" transform="translate(0 -0.62)"/><circle class="cls-34" cx="63.2" cy="262.34" r="2.02"/><line class="cls-35" x1="136.14" y1="281.55" x2="136.1" y2="281.55"/><line class="cls-35" x1="136.14" y1="315.34" x2="136.1" y2="315.34"/><line class="cls-36" x1="69.73" y1="251.69" x2="69.73" y2="256.88"/><line class="cls-36" x1="71.32" y1="251.69" x2="71.32" y2="256.88"/><line class="cls-36" x1="72.92" y1="251.69" x2="72.92" y2="256.88"/><line class="cls-36" x1="74.56" y1="251.69" x2="74.56" y2="256.88"/><line class="cls-36" x1="76.15" y1="251.69" x2="76.15" y2="256.88"/><line class="cls-36" x1="77.74" y1="251.69" x2="77.74" y2="256.88"/><line class="cls-36" x1="79.44" y1="251.7" x2="79.44" y2="256.89"/><line class="cls-36" x1="81.03" y1="251.7" x2="81.03" y2="256.89"/><line class="cls-36" x1="82.63" y1="251.7" x2="82.63" y2="256.89"/><line class="cls-36" x1="84.27" y1="251.7" x2="84.27" y2="256.89"/><line class="cls-36" x1="85.86" y1="251.7" x2="85.86" y2="256.89"/><line class="cls-36" x1="87.45" y1="251.7" x2="87.45" y2="256.89"/><rect class="cls-37" x="362.87" y="212.58" width="107.9" height="148.35"/><rect class="cls-38" x="366.87" y="290.48" width="99.9" height="20.38"/><rect class="cls-6" x="366.87" y="218.61" width="99.9" height="71.87"/><path class="cls-39" d="M366.87,284.34" transform="translate(0 -0.62)"/><polygon class="cls-40" points="420.13 290.48 401.8 290.48 395.64 272.28 420.13 290.48"/><polygon class="cls-41" points="401.8 290.48 366.87 290.48 395.64 272.28 401.8 290.48"/><polygon class="cls-40" points="466.77 290.48 449.75 290.48 442.75 264.12 466.77 290.48"/><polygon class="cls-41" points="449.75 290.48 420.13 290.48 442.75 264.12 449.75 290.48"/><path class="cls-42" d="M396.25,257.57s4.45-1.64,8.93-3.19c1.12-.4,2.23-0.81,3.28-1.17s2.06-.6,2.93-0.8,1.6-.35,2.11-0.43,0.81-.13.81-0.13l0,0.1s-0.26.14-.74,0.37-1.16.52-2,.86-1.8.68-2.86,1-2.21.62-3.35,0.93c-4.56,1.31-9.14,2.53-9.14,2.53Z" transform="translate(0 -0.62)"/><path class="cls-42" d="M382.72,265.16s6.27-2.22,12.57-4.35c1.57-.54,3.14-1.1,4.62-1.59,0.75-.22,1.46-0.46,2.15-0.64l1.94-.53c0.6-.17,1.16-0.28,1.66-0.41s0.92-.22,1.28-0.29c0.71-.15,1.13-0.22,1.13-0.22l0,0.1s-0.38.18-1.05,0.46c-0.33.15-.74,0.32-1.22,0.5s-1,.41-1.59.62l-1.89.69c-0.67.25-1.39,0.47-2.13,0.72-1.49.45-3.09,0.9-4.69,1.36-6.38,1.88-12.78,3.68-12.78,3.68Z" transform="translate(0 -0.62)"/><path class="cls-42" d="M394.28,264.92s8-2.76,16-5.44l5.88-2c0.95-.28,1.86-0.58,2.74-0.82l2.47-.69c0.76-.22,1.47-0.38,2.1-0.55s1.17-.3,1.62-0.4c0.9-.21,1.42-0.32,1.42-0.32l0,0.1s-0.49.21-1.35,0.56c-0.43.18-1,.38-1.56,0.61s-1.28.5-2,.76l-2.42.85c-0.86.31-1.77,0.59-2.71,0.9l-6,1.76c-8.1,2.43-16.23,4.77-16.23,4.77Z" transform="translate(0 -0.62)"/><circle class="cls-1" cx="452.52" cy="236.14" r="4.78"/><g class="cls-43"><circle class="cls-1" cx="449.02" cy="236.87" r="4.78" transform="translate(1.01 475.02) rotate(-55.87)"/></g><rect class="cls-44" x="453.9" y="235.56" width="1.85" height="0.37" rx="0.19" ry="0.19"/><rect class="cls-44" x="449.14" y="238.55" width="2.45" height="0.38" rx="0.19" ry="0.19"/><rect class="cls-44" x="449.97" y="239.19" width="2.07" height="0.38" rx="0.19" ry="0.19"/><rect class="cls-44" x="453.05" y="234.92" width="2.97" height="0.37" rx="0.19" ry="0.19"/><rect class="cls-44" x="454.23" y="234.28" width="1.19" height="0.37" rx="0.19" ry="0.19"/><text class="cls-45" transform="translate(188.79 147.77)">photo</text></svg>