<svg id="Layer_1" data-name="Layer 1" xmlns="http://www.w3.org/2000/svg" viewBox="0 0 619.27 146.97"><defs><style>.cls-1,.cls-8{fill:#fff;}.cls-1,.cls-3,.cls-5,.cls-8{stroke:#231f20;stroke-miterlimit:10;}.cls-2{font-size:8px;}.cls-2,.cls-4,.cls-7,.cls-9{fill:#231f20;}.cls-2,.cls-4,.cls-9{font-family:Karla;}.cls-2,.cls-4{font-weight:700;}.cls-3,.cls-5,.cls-6{fill:none;}.cls-3,.cls-8{stroke-width:2px;}.cls-4,.cls-9{font-size:11px;}</style></defs><title>Ranking_Diagrams</title><rect class="cls-1" x="23.96" y="73.26" width="43" height="57.34"/><rect class="cls-1" x="27.41" y="76.63" width="43" height="57.34"/><rect class="cls-1" x="31.18" y="80.7" width="43" height="57.34"/><rect class="cls-1" x="34.63" y="84.07" width="43" height="57.34"/><text class="cls-2" transform="translate(22.48 67.62)">Y<tspan x="4.18" y="0">elp Reviews</tspan></text><polyline class="cls-3" points="45.46 92.33 47.5 93.33 49.54 92.33 51.58 93.33 53.62 92.33 55.66 93.33 57.7 92.33 59.74 93.33 61.78 92.33 63.82 93.33 65.86 92.33 67.9 93.33 69.95 92.33 72 93.33"/><polyline class="cls-3" points="40.31 97.45 42.75 98.45 45.18 97.45 47.61 98.45 50.04 97.45 52.47 98.45 54.91 97.45 57.34 98.45 59.77 97.45 62.2 98.45 64.64 97.45 67.07 98.45 69.51 97.45 71.95 98.45"/><polyline class="cls-3" points="40.27 102.74 42.7 103.74 45.13 102.74 47.56 103.74 49.99 102.74 52.42 103.74 54.86 102.74 57.29 103.74 59.72 102.74 62.15 103.74 64.59 102.74 67.02 103.74 69.46 102.74 71.9 103.74"/><polyline class="cls-3" points="40.22 107.86 42.66 108.86 45.1 107.86 47.55 108.86 49.99 107.86 52.43 108.86 54.88 107.86 57.32 108.86 59.76 107.86 62.2 108.86 64.65 107.86 67.1 108.86 69.55 107.86 72 108.86"/><polyline class="cls-3" points="45.32 115.27 47.36 116.27 49.4 115.27 51.44 116.27 53.48 115.27 55.52 116.27 57.56 115.27 59.59 116.27 61.63 115.27 63.68 116.27 65.72 115.27 67.76 116.27 69.81 115.27 71.85 116.27"/><polyline class="cls-3" points="40.22 120.57 42.65 121.57 45.08 120.57 47.51 121.57 49.95 120.57 52.38 121.57 54.81 120.57 57.24 121.57 59.67 120.57 62.1 121.57 64.54 120.57 66.97 121.57 69.41 120.57 71.85 121.57"/><polyline class="cls-3" points="40.31 126.45 42.75 127.45 45.18 126.45 47.61 127.45 50.04 126.45 52.47 127.45 54.91 126.45 57.34 127.45 59.77 126.45 62.2 127.45 64.64 126.45 67.07 127.45 69.51 126.45 71.95 127.45"/><circle class="cls-3" cx="11.39" cy="29.55" r="10.39"/><text class="cls-4" transform="translate(9.17 33.28)">1</text><circle class="cls-3" cx="51.45" cy="29.55" r="10.39"/><text class="cls-4" transform="translate(48.23 33.28)">2</text><circle class="cls-3" cx="91.17" cy="29.55" r="10.39"/><text class="cls-4" transform="translate(87.95 33.28)">3</text><text class="cls-2" transform="translate(38 6.6)">T<tspan x="3.53" y="0">opics</tspan></text><line class="cls-5" x1="118.74" y1="40.75" x2="161.3" y2="55.88"/><rect class="cls-6" x="192.46" y="95.78" width="7.85" height="5.09" transform="translate(5.29 208.84) rotate(-70.43)"/><polygon class="cls-7" points="159.99 59.58 166.1 57.58 162.62 52.18 159.99 59.58"/><line class="cls-5" x1="108.66" y1="101.75" x2="158.13" y2="102"/><rect class="cls-6" x="189.69" y="140.82" width="7.81" height="5.57" transform="translate(16.31 294.87) rotate(-89.7)"/><polygon class="cls-7" points="158.11 105.91 163.7 102.03 158.15 98.1 158.11 105.91"/><rect class="cls-1" x="182.5" y="59.76" width="43" height="57.34"/><rect class="cls-1" x="185.95" y="63.13" width="43" height="57.34"/><rect class="cls-1" x="189.72" y="67.2" width="43" height="57.34"/><rect class="cls-1" x="193.17" y="70.57" width="43" height="57.34"/><polyline class="cls-3" points="204 78.84 206.04 79.84 208.08 78.84 210.12 79.84 212.16 78.84 214.2 79.84 216.24 78.84 218.28 79.84 220.31 78.84 222.36 79.84 224.4 78.84 226.44 79.84 228.49 78.84 230.53 79.84"/><polyline class="cls-3" points="198.85 83.96 201.28 84.96 203.72 83.96 206.15 84.96 208.58 83.96 211.01 84.96 213.44 83.96 215.87 84.96 218.31 83.96 220.74 84.96 223.17 83.96 225.61 84.96 228.05 83.96 230.49 84.96"/><polyline class="cls-3" points="198.8 89.25 201.24 90.25 203.66 89.25 206.1 90.25 208.53 89.25 210.96 90.25 213.4 89.25 215.82 90.25 218.25 89.25 220.69 90.25 223.12 89.25 225.56 90.25 228 89.25 230.44 90.25"/><polyline class="cls-3" points="198.76 94.37 201.2 95.37 203.64 94.37 206.08 95.37 208.53 94.37 210.97 95.37 213.41 94.37 215.85 95.37 218.3 94.37 220.74 95.37 223.19 94.37 225.63 95.37 228.08 94.37 230.53 95.37"/><polyline class="cls-3" points="203.86 101.78 205.9 102.78 207.94 101.78 209.97 102.78 212.01 101.78 214.06 102.78 216.09 101.78 218.13 102.78 220.17 101.78 222.21 102.78 224.26 101.78 226.3 102.78 228.34 101.78 230.39 102.78"/><text class="cls-4" transform="translate(188.67 138.72)">1</text><text x="-32.68" y="-41.59"/><text class="cls-4" transform="translate(177.77 129.66)">2</text><text x="-32.68" y="-41.59"/><text class="cls-4" transform="translate(168.43 121.77)">3</text><text x="-32.68" y="-41.59"/><text x="-32.68" y="-41.59"/><text x="-32.68" y="-41.59"/><text class="cls-2" transform="translate(176.75 51.71)">TF-IDF Ranking</text><text x="-32.68" y="-41.59"/><line class="cls-5" x1="247.84" y1="85.19" x2="277.81" y2="85.35"/><rect class="cls-6" x="308.25" y="125.26" width="7.85" height="3.38" transform="translate(150.94 396.88) rotate(-89.7)"/><polygon class="cls-7" points="277.79 89.28 281.19 85.37 277.83 81.42 277.79 89.28"/><rect class="cls-1" x="296.01" y="68.2" width="43" height="57.34"/><polyline class="cls-3" points="306.89 75.87 308.93 76.87 310.97 75.87 313.01 76.87 315.05 75.87 317.09 76.87 319.13 75.87 321.17 76.87 323.2 75.87 325.25 76.87 327.29 75.87 329.33 76.87 331.38 75.87 333.42 76.87"/><polyline class="cls-3" points="301.74 80.99 304.17 81.99 306.6 80.99 309.04 81.99 311.47 80.99 313.9 81.99 316.33 80.99 318.76 81.99 321.19 80.99 323.63 81.99 326.06 80.99 328.5 81.99 330.94 80.99 333.38 81.99"/><polyline class="cls-3" points="301.69 86.28 304.12 87.28 306.56 86.28 308.99 87.28 311.42 86.28 313.85 87.28 316.29 86.28 318.71 87.28 321.14 86.28 323.58 87.28 326.01 86.28 328.45 87.28 330.89 86.28 333.33 87.28"/><polyline class="cls-3" points="301.65 91.4 304.09 92.4 306.53 91.4 308.97 92.4 311.42 91.4 313.86 92.4 316.3 91.4 318.74 92.4 321.19 91.4 323.63 92.4 326.08 91.4 328.52 92.4 330.97 91.4 333.42 92.4"/><polyline class="cls-3" points="306.75 98.81 308.79 99.81 310.82 98.81 312.87 99.81 314.9 98.81 316.94 99.81 318.99 98.81 321.02 99.81 323.06 98.81 325.1 99.81 327.15 98.81 329.19 99.81 331.24 98.81 333.28 99.81"/><line class="cls-5" x1="355.73" y1="85.24" x2="385.18" y2="85.39"/><rect class="cls-6" x="415.6" y="125.33" width="7.83" height="3.32" transform="translate(257.68 504.26) rotate(-89.7)"/><polygon class="cls-7" points="385.16 89.31 388.5 85.41 385.2 81.48 385.16 89.31"/><text class="cls-2" transform="translate(294.42 58.87)">T<tspan x="3.53" y="0">op Review</tspan></text><circle class="cls-8" cx="419.61" cy="49.61" r="4.43"/><circle class="cls-8" cx="446.55" cy="49.61" r="4.43"/><circle class="cls-8" cx="428.65" cy="74.46" r="4.43"/><circle class="cls-8" cx="455.6" cy="74.46" r="4.43"/><circle class="cls-8" cx="475.5" cy="56.1" r="4.43"/><circle class="cls-8" cx="402.87" cy="74.46" r="4.43"/><circle class="cls-8" cx="434.5" cy="127.48" r="4.43"/><circle class="cls-8" cx="484.36" cy="87.95" r="4.43"/><circle class="cls-8" cx="402.87" cy="109.87" r="4.43"/><circle class="cls-8" cx="430.86" cy="100.32" r="4.43"/><circle class="cls-8" cx="456.1" cy="100.32" r="4.43"/><circle class="cls-8" cx="475.5" cy="120.82" r="4.43"/><line class="cls-3" x1="419.61" y1="49.61" x2="446.55" y2="49.61"/><line class="cls-3" x1="402.87" y1="74.46" x2="428.65" y2="74.46"/><line class="cls-3" x1="455.6" y1="74.46" x2="402.87" y2="109.87"/><line class="cls-3" x1="419.61" y1="49.61" x2="402.87" y2="109.87"/><line class="cls-3" x1="446.55" y1="49.61" x2="475.5" y2="56.1"/><line class="cls-3" x1="484.36" y1="87.95" x2="475.5" y2="56.1"/><line class="cls-3" x1="456.1" y1="100.32" x2="484.36" y2="87.95"/><line class="cls-3" x1="455.6" y1="74.46" x2="483.08" y2="88.51"/><line class="cls-3" x1="475.5" y1="120.82" x2="475.5" y2="56.1"/><line class="cls-3" x1="456.1" y1="100.32" x2="475.5" y2="120.82"/><line class="cls-3" x1="484.03" y1="87.95" x2="475.5" y2="120.82"/><line class="cls-3" x1="456.1" y1="100.32" x2="419.61" y2="49.61"/><line class="cls-3" x1="428.65" y1="74.46" x2="446.55" y2="49.61"/><line class="cls-3" x1="430.86" y1="100.32" x2="434.5" y2="127.48"/><line class="cls-3" x1="456.1" y1="100.32" x2="434.5" y2="127.48"/><line class="cls-3" x1="475.5" y1="120.82" x2="434.5" y2="127.48"/><line class="cls-3" x1="402.87" y1="109.87" x2="434.5" y2="127.48"/><line class="cls-3" x1="402.87" y1="74.46" x2="402.87" y2="109.87"/><line class="cls-3" x1="419.61" y1="49.61" x2="402.87" y2="74.46"/><line class="cls-3" x1="455.6" y1="74.46" x2="446.55" y2="49.61"/><line class="cls-3" x1="456.1" y1="100.32" x2="475.5" y2="56.1"/><line class="cls-3" x1="455.6" y1="74.46" x2="456.1" y2="100.32"/><line class="cls-3" x1="428.65" y1="74.46" x2="430.86" y2="100.32"/><line class="cls-3" x1="402.87" y1="109.87" x2="430.86" y2="100.32"/><circle class="cls-8" cx="419.61" cy="49.61" r="4.43"/><circle class="cls-8" cx="446.55" cy="49.61" r="4.43"/><circle class="cls-8" cx="428.65" cy="74.46" r="4.43"/><circle class="cls-8" cx="455.6" cy="74.46" r="4.43"/><circle class="cls-8" cx="475.5" cy="56.1" r="4.43"/><circle class="cls-8" cx="402.87" cy="74.46" r="4.43"/><circle class="cls-8" cx="434.5" cy="127.48" r="4.43"/><circle class="cls-8" cx="484.36" cy="87.95" r="4.43"/><circle class="cls-8" cx="402.87" cy="109.87" r="4.43"/><circle class="cls-8" cx="430.86" cy="100.32" r="4.43"/><circle class="cls-8" cx="456.1" cy="100.32" r="4.43"/><circle class="cls-8" cx="475.5" cy="120.82" r="4.43"/><line class="cls-5" x1="504.44" y1="84.3" x2="533.89" y2="84.45"/><rect class="cls-6" x="564.31" y="124.39" width="7.83" height="3.32" transform="translate(406.57 652.03) rotate(-89.7)"/><polygon class="cls-7" points="533.87 88.36 537.21 84.47 533.91 80.53 533.87 88.36"/><text class="cls-2" transform="translate(424.26 35.04)">LexRank </text><text class="cls-9" transform="translate(554.52 67.61)">I love the <tspan x="0" y="13.2">steak and </tspan><tspan x="0" y="26.4">the service </tspan><tspan x="0" y="39.6">is great!</tspan></text><text x="-32.68" y="-41.59"/></svg>